<?xml version="1.0" encoding="UTF-8" standalone="no"?>
<!DOCTYPE svg PUBLIC "-//W3C//DTD SVG 1.1//EN" "http://www.w3.org/Graphics/SVG/1.1/DTD/svg11.dtd">
<svg width="100%" height="100%" viewBox="0 0 1920 1920" version="1.1" xmlns="http://www.w3.org/2000/svg" xmlns:xlink="http://www.w3.org/1999/xlink" xml:space="preserve" xmlns:serif="http://www.serif.com/" style="fill-rule:evenodd;clip-rule:evenodd;stroke-linecap:round;stroke-linejoin:round;stroke-miterlimit:1.5;">
    <g transform="matrix(1.47791,0,0,1.47791,-458.792,145.056)">
        <g transform="matrix(0.688457,0,0,0.688457,-184.653,612.443)">
            <text x="856px" y="613px" style="font-family:'CoolveticaRg-Regular', 'Coolvetica', sans-serif;font-size:314.11px;fill:rgb(242,242,242);">SMARTLI</text>
            <text x="2024.81px" y="613px" style="font-family:'CoolveticaRg-Regular', 'Coolvetica', sans-serif;font-size:314.11px;fill:rgb(13,110,253);">.ME</text>
        </g>
        <g transform="matrix(2.42003,0,0,2.42003,-828.254,-1536.06)">
            <g transform="matrix(0.694,0,0,0.694,90.7857,239.681)">
                <g transform="matrix(1,0,0,1,-306.56,66.4225)">
                    <path d="M1294,933.75C1294,929.473 1290.53,926 1286.25,926L1194.75,926C1190.47,926 1187,929.473 1187,933.75L1187,949.25C1187,953.527 1190.47,957 1194.75,957L1286.25,957C1290.53,957 1294,953.527 1294,949.25L1294,933.75Z" style="fill:rgb(13,110,253);"/>
                </g>
                <g transform="matrix(0.801137,0,0,0.806452,-59.8701,283.148)">
                    <path d="M1294,933.75C1294,929.473 1290.5,926 1286.2,926L1194.8,926C1190.5,926 1187,929.473 1187,933.75L1187,949.25C1187,953.527 1190.5,957 1194.8,957L1286.2,957C1290.5,957 1294,953.527 1294,949.25L1294,933.75Z" style="fill:rgb(242,242,242);"/>
                </g>
                <g transform="matrix(1.44092,0,0,1.44092,-411.795,-362.652)">
                    <path d="M885.707,884.731C848.355,866.74 822.553,828.517 822.553,784.316C822.553,722.84 872.464,672.929 933.94,672.929C995.416,672.929 1045.33,722.84 1045.33,784.316C1045.33,828.517 1019.52,866.74 982.173,884.731L982.173,909.89C982.173,917.764 975.78,924.157 967.906,924.157L899.974,924.157C892.1,924.157 885.707,917.764 885.707,909.89L885.707,884.731Z" style="fill:none;stroke:rgb(242,242,242);stroke-width:21.26px;"/>
                </g>
            </g>
            <g transform="matrix(0.349816,0,0,0.349816,586.729,615.473)">
                <g transform="matrix(1,4.57695e-17,-4.57695e-17,1,-64.8837,-20)">
                    <path d="M633.319,365.278C611.973,310.256 559.018,274 500,274C421.076,274 357,338.076 357,417C357,495.977 421.023,560 500,560L500,488.5C460.512,488.5 428.5,456.488 428.5,417C428.5,377.538 460.538,345.5 500,345.5C529.509,345.5 555.986,363.628 566.659,391.139L633.319,365.278Z" style="fill:rgb(13,110,253);"/>
                </g>
                <g transform="matrix(-1,-1.68234e-16,1.68234e-16,-1,935.116,957)">
                    <path d="M633.319,365.278C611.973,310.256 559.018,274 500,274C421.076,274 357,338.076 357,417C357,495.977 421.023,560 500,560L500,488.5C460.512,488.5 428.5,456.488 428.5,417C428.5,377.538 460.538,345.5 500,345.5C529.509,345.5 555.986,363.628 566.659,391.139L633.319,365.278Z" style="fill:rgb(242,242,242);"/>
                </g>
            </g>
        </g>
    </g>
</svg>
